<svg width="155" height="96" viewBox="0 0 155 96" fill="none" xmlns="http://www.w3.org/2000/svg">
<g id="Link &#226;&#134;&#146; SVG" clip-path="url(#clip0_374_1458)">
<path id="Vector" d="M61.2768 43.3679L71.4412 16.4044C71.4412 16.4044 72.1305 13.8195 70.1487 12.9593C68.167 12.0977 65.4112 10.9775 65.4112 10.9775V9.85742H79.5391V11.5807L93.0638 43.3679H84.6213L75.6617 19.4201L66.6161 43.3679H61.2754H61.2768Z" fill="#022D3F"/>
<path id="Vector_2" d="M31.1098 84.6246V65.5395C31.1098 65.5395 31.3349 64.1928 28.1914 64.1928V63.3701H34.4785V64.1192L44.1329 80.3609V63.3715H45.9298V84.6274H43.4602L33.0568 66.365V84.6274H31.1112L31.1098 84.6246Z" fill="#022D3F"/>
<path id="Vector_3" d="M65.6891 84.6246V65.0156H61.9466C61.9466 65.0156 59.7758 65.1656 59.7758 67.7853H58.9531V63.3701H74.8946V67.7116H74.2956C74.2956 67.7116 74.0705 65.0294 72.425 65.0294H68.3837V84.626H65.6891V84.6246Z" fill="#022D3F"/>
<path id="Vector_4" d="M95.0265 63.3687H89.6372V64.2664C91.9566 64.2664 91.8079 66.4372 91.8079 66.4372L84.9219 84.605L87.2232 84.587L89.7859 77.4577L97.3446 77.4396L99.8891 84.6245H102.584L95.0251 63.3687H95.0265ZM90.1236 76.2042L93.6785 67.1112L96.9707 76.2042H90.1236Z" fill="#022D3F"/>
<path id="Vector_5" d="M10.1222 63.3687H4.73289V64.2664C7.05233 64.2664 6.90363 66.4372 6.90363 66.4372L0.0175781 84.605L2.31895 84.587L4.88298 77.4577L12.4417 77.4396L14.9862 84.6245H17.6809L10.1222 63.3687ZM5.21929 76.2042L8.77419 67.1112L12.0664 76.2042H5.21929Z" fill="#022D3F"/>
<path id="Vector_6" d="M128.257 80.1344V84.6246H116.132V65.6145C116.132 65.6145 115.982 64.1928 113.438 64.1928V63.3701H127.732V67.2613H127.058C127.058 67.2613 126.684 64.6417 124.962 64.6417H119.798C119.798 64.6417 118.675 65.1656 118.675 66.3636V72.8008H124.213C124.213 72.8008 125.953 71.7529 125.953 70.48H126.908V76.8421H125.71C125.71 76.8421 125.86 73.9974 124.138 73.9974H118.749V83.4947H125.859C125.859 83.4947 127.282 82.679 127.282 80.1344H128.253H128.257Z" fill="#022D3F"/>
<path id="Vector_7" d="M152.581 66.101V63.3688C152.581 63.3688 147.074 62.7476 144.504 63.5453C141.935 64.343 137.889 69.0528 144.243 73.5638C147.913 76.1279 148.86 76.0904 150.341 77.3383C151.823 78.5877 151.738 82.8222 148.571 83.146C145.402 83.4698 142.06 82.5971 141.33 81.8688V84.6247C141.33 84.6247 145.986 85.232 150.138 84.6247C154.291 84.0174 155.975 77.1062 152.287 74.6965C148.598 72.2867 147.498 71.9935 145.638 70.7455C143.779 69.4989 142.833 66.5485 145.202 65.2005C147.571 63.8538 150.636 65.2033 152.583 66.101H152.581Z" fill="#022D3F"/>
</g>
<defs>
<clipPath id="clip0_374_1458">
<rect width="154.34" height="95.52" fill="white"/>
</clipPath>
</defs>
</svg>
